<svg width="33" height="33" viewBox="0 0 33 33" fill="none" xmlns="http://www.w3.org/2000/svg">
<path d="M16.5 23.375C18.0125 23.375 19.25 22.1375 19.25 20.625C19.25 19.1125 18.0125 17.875 16.5 17.875C14.9875 17.875 13.75 19.1125 13.75 20.625C13.75 22.1375 14.9875 23.375 16.5 23.375ZM24.75 11H23.375V8.25C23.375 4.455 20.295 1.375 16.5 1.375C12.705 1.375 9.625 4.455 9.625 8.25H12.2375C12.2375 5.89875 14.1487 3.9875 16.5 3.9875C18.8513 3.9875 20.7625 5.89875 20.7625 8.25V11H8.25C6.7375 11 5.5 12.2375 5.5 13.75V27.5C5.5 29.0125 6.7375 30.25 8.25 30.25H24.75C26.2625 30.25 27.5 29.0125 27.5 27.5V13.75C27.5 12.2375 26.2625 11 24.75 11ZM24.75 27.5H8.25V13.75H24.75V27.5Z" fill="black"/>
</svg>
