<svg width="20" height="20" viewBox="0 0 20 20" fill="none" xmlns="http://www.w3.org/2000/svg">
<path d="M9.16668 15C9.16668 15.9166 8.41668 16.6666 7.50001 16.6666C6.58334 16.6666 5.83334 15.9166 5.83334 15C5.83334 14.0833 6.58334 13.3333 7.50001 13.3333C8.41668 13.3333 9.16668 14.0833 9.16668 15ZM7.50001 8.33331C6.58334 8.33331 5.83334 9.08331 5.83334 9.99998C5.83334 10.9166 6.58334 11.6666 7.50001 11.6666C8.41668 11.6666 9.16668 10.9166 9.16668 9.99998C9.16668 9.08331 8.41668 8.33331 7.50001 8.33331ZM7.50001 3.33331C6.58334 3.33331 5.83334 4.08331 5.83334 4.99998C5.83334 5.91665 6.58334 6.66665 7.50001 6.66665C8.41668 6.66665 9.16668 5.91665 9.16668 4.99998C9.16668 4.08331 8.41668 3.33331 7.50001 3.33331ZM12.5 6.66665C13.4167 6.66665 14.1667 5.91665 14.1667 4.99998C14.1667 4.08331 13.4167 3.33331 12.5 3.33331C11.5833 3.33331 10.8333 4.08331 10.8333 4.99998C10.8333 5.91665 11.5833 6.66665 12.5 6.66665ZM12.5 8.33331C11.5833 8.33331 10.8333 9.08331 10.8333 9.99998C10.8333 10.9166 11.5833 11.6666 12.5 11.6666C13.4167 11.6666 14.1667 10.9166 14.1667 9.99998C14.1667 9.08331 13.4167 8.33331 12.5 8.33331ZM12.5 13.3333C11.5833 13.3333 10.8333 14.0833 10.8333 15C10.8333 15.9166 11.5833 16.6666 12.5 16.6666C13.4167 16.6666 14.1667 15.9166 14.1667 15C14.1667 14.0833 13.4167 13.3333 12.5 13.3333Z" fill="#171717"/>
</svg>
