<svg width="40" height="40" viewBox="0 0 40 40" fill="none" xmlns="http://www.w3.org/2000/svg">
<path d="M34.6876 30.625H25.9376C25.7657 30.625 25.6251 30.7656 25.6251 30.9375V32.8125C25.6251 32.9844 25.7657 33.125 25.9376 33.125H34.6876C34.8595 33.125 35.0001 32.9844 35.0001 32.8125V30.9375C35.0001 30.7656 34.8595 30.625 34.6876 30.625ZM14.5899 19.9375C14.5548 19.5977 14.5353 19.2539 14.5353 18.9063C14.5353 18.2852 14.5938 17.6797 14.7032 17.0898C14.7306 16.9492 14.6563 16.8047 14.5274 16.7461C13.9962 16.5078 13.5079 16.1797 13.086 15.7656C12.5889 15.2836 12.1977 14.7033 11.9375 14.0617C11.6772 13.42 11.5535 12.7312 11.5743 12.0391C11.6095 10.7852 12.1134 9.59375 12.9923 8.69531C13.9571 7.70703 15.254 7.16797 16.6329 7.18359C17.879 7.19531 19.0821 7.67578 19.9923 8.52734C20.3009 8.81641 20.5665 9.13672 20.7892 9.48047C20.8673 9.60156 21.0196 9.65234 21.1524 9.60547C21.8399 9.36719 22.5665 9.19922 23.3126 9.12109C23.5313 9.09766 23.6563 8.86328 23.5587 8.66797C22.2892 6.15625 19.6954 4.42188 16.6954 4.375C12.3634 4.30859 8.754 7.85938 8.754 12.1836C8.754 14.6367 9.88291 16.8242 11.6524 18.2578C10.4103 18.832 9.26572 19.625 8.27354 20.6172C6.13291 22.7539 4.92197 25.5742 4.84385 28.5859C4.84281 28.6276 4.85012 28.6691 4.86535 28.7079C4.88059 28.7467 4.90345 28.7821 4.93257 28.812C4.96169 28.8418 4.99649 28.8655 5.03493 28.8817C5.07336 28.8979 5.11464 28.9063 5.15635 28.9062H7.34775C7.51572 28.9062 7.65635 28.7734 7.66025 28.6055C7.73447 26.3398 8.65244 24.2188 10.2657 22.6094C11.4142 21.4609 12.8204 20.6641 14.3556 20.2773C14.5079 20.2383 14.6095 20.0938 14.5899 19.9375ZM32.1876 18.9063C32.1876 14.6328 28.754 11.1602 24.4962 11.0938C20.1681 11.0273 16.5626 14.5781 16.5626 18.9063C16.5626 21.3594 17.6954 23.5469 19.461 24.9805C18.206 25.5622 17.0635 26.3609 16.086 27.3398C13.9454 29.4766 12.7345 32.2969 12.6563 35.3047C12.6553 35.3464 12.6626 35.3879 12.6779 35.4267C12.6931 35.4655 12.7159 35.5009 12.7451 35.5307C12.7742 35.5606 12.809 35.5843 12.8474 35.6005C12.8859 35.6167 12.9271 35.625 12.9688 35.625H15.1563C15.3243 35.625 15.4649 35.4922 15.4688 35.3242C15.5431 33.0586 16.461 30.9375 18.0743 29.3281C19.7579 27.6445 21.9923 26.7188 24.3751 26.7188C28.6876 26.7188 32.1876 23.2227 32.1876 18.9063ZM27.9103 22.4414C26.9649 23.3867 25.711 23.9063 24.3751 23.9063C23.0392 23.9063 21.7853 23.3867 20.8399 22.4414C20.3682 21.9721 19.9955 21.413 19.7439 20.797C19.4922 20.181 19.3668 19.5208 19.3751 18.8555C19.3868 17.5742 19.8985 16.3359 20.7931 15.418C21.7306 14.457 22.9845 13.9219 24.3243 13.9063C25.6485 13.8945 26.9337 14.4102 27.879 15.3359C28.8478 16.2852 29.379 17.5547 29.379 18.9063C29.3751 20.2422 28.8556 21.4961 27.9103 22.4414Z" fill="black"/>
</svg>
