<svg width="40" height="40" viewBox="0 0 40 40" fill="none" xmlns="http://www.w3.org/2000/svg">
<path d="M8.33325 8.33333H29.9999C31.326 8.33333 32.5978 8.86011 33.5355 9.79779C34.4731 10.7355 34.9999 12.0072 34.9999 13.3333V28.3333C34.9999 29.6594 34.4731 30.9312 33.5355 31.8689C32.5978 32.8065 31.326 33.3333 29.9999 33.3333H8.33325C7.00717 33.3333 5.7354 32.8065 4.79772 31.8689C3.86004 30.9312 3.33325 29.6594 3.33325 28.3333V13.3333C3.33325 12.0072 3.86004 10.7355 4.79772 9.79779C5.7354 8.86011 7.00717 8.33333 8.33325 8.33333ZM8.33325 9.99999C7.51992 9.99999 6.77325 10.2917 6.19492 10.7767L19.1666 19.2L32.1383 10.7767C31.5392 10.274 30.7819 9.99897 29.9999 9.99999H8.33325ZM19.1666 21.1867L5.22325 12.1333C5.0754 12.5161 4.99968 12.923 4.99992 13.3333V28.3333C4.99992 29.2174 5.35111 30.0652 5.97623 30.6903C6.60135 31.3155 7.4492 31.6667 8.33325 31.6667H29.9999C30.884 31.6667 31.7318 31.3155 32.3569 30.6903C32.9821 30.0652 33.3333 29.2174 33.3333 28.3333V13.3333C33.3333 12.91 33.2549 12.505 33.1099 12.1333L19.1666 21.185V21.1867Z" fill="black"/>
</svg>
