<svg width="14" height="16" viewBox="0 0 14 16" fill="none" xmlns="http://www.w3.org/2000/svg">
<path d="M3 9H1C0.447812 9 0 9.44781 0 10V12C0 12.5522 0.447812 13 1 13H3C3.55219 13 4 12.5522 4 12V10C4 9.44781 3.55219 9 3 9ZM8 9H6C5.44781 9 5 9.44781 5 10V12C5 12.5522 5.44781 13 6 13H8C8.55219 13 9 12.5522 9 12V10C9 9.44781 8.55219 9 8 9ZM13 9H11C10.4478 9 10 9.44781 10 10V12C10 12.5522 10.4478 13 11 13H13C13.5522 13 14 12.5522 14 12V10C14 9.44781 13.5522 9 13 9ZM3 3H1C0.447812 3 0 3.44781 0 4V6C0 6.55219 0.447812 7 1 7H3C3.55219 7 4 6.55219 4 6V4C4 3.44781 3.55219 3 3 3ZM8 3H6C5.44781 3 5 3.44781 5 4V6C5 6.55219 5.44781 7 6 7H8C8.55219 7 9 6.55219 9 6V4C9 3.44781 8.55219 3 8 3ZM13 3H11C10.4478 3 10 3.44781 10 4V6C10 6.55219 10.4478 7 11 7H13C13.5522 7 14 6.55219 14 6V4C14 3.44781 13.5522 3 13 3Z" fill="#D3D3D3"/>
</svg>
