<svg width="33" height="39" viewBox="0 0 33 39" fill="none" xmlns="http://www.w3.org/2000/svg">
<g clip-path="url(#clip0)">
<path d="M25.8027 16.8438C26.4759 17.0443 27.1169 17.3164 27.7256 17.6602C28.3343 18.0039 28.9717 18.5267 29.6377 19.2285C30.3037 19.9303 30.873 20.7575 31.3457 21.71C31.8184 22.6624 32.2122 23.8942 32.5273 25.4053C32.8424 26.9163 33 28.61 33 30.4863C33 32.6921 32.2839 34.5791 30.8516 36.1475C29.4193 37.7158 27.6934 38.5 25.6738 38.5H7.32617C5.30664 38.5 3.58073 37.7158 2.14844 36.1475C0.716146 34.5791 0 32.6921 0 30.4863C0 28.61 0.157552 26.9163 0.472656 25.4053C0.78776 23.8942 1.18164 22.6624 1.6543 21.71C2.12695 20.7575 2.69629 19.9303 3.3623 19.2285C4.02832 18.5267 4.66569 18.0039 5.27441 17.6602C5.88314 17.3164 6.52409 17.0443 7.19727 16.8438C6.06576 15.0534 5.5 13.1055 5.5 11C5.5 9.51042 5.79004 8.08887 6.37012 6.73535C6.9502 5.38184 7.73438 4.21094 8.72266 3.22266C9.71094 2.23438 10.8818 1.4502 12.2354 0.870117C13.5889 0.290039 15.0104 0 16.5 0C17.9896 0 19.4111 0.290039 20.7646 0.870117C22.1182 1.4502 23.2891 2.23438 24.2773 3.22266C25.2656 4.21094 26.0498 5.38184 26.6299 6.73535C27.21 8.08887 27.5 9.51042 27.5 11C27.5 13.1055 26.9342 15.0534 25.8027 16.8438ZM16.5 2.75C14.2227 2.75 12.2783 3.55566 10.667 5.16699C9.05566 6.77832 8.25 8.72266 8.25 11C8.25 13.2773 9.05566 15.2217 10.667 16.833C12.2783 18.4443 14.2227 19.25 16.5 19.25C18.7773 19.25 20.7217 18.4443 22.333 16.833C23.9443 15.2217 24.75 13.2773 24.75 11C24.75 8.72266 23.9443 6.77832 22.333 5.16699C20.7217 3.55566 18.7773 2.75 16.5 2.75ZM25.6738 35.75C26.9342 35.75 28.012 35.238 28.9072 34.2139C29.8024 33.1898 30.25 31.9473 30.25 30.4863C30.25 27.0632 29.6878 24.3633 28.5635 22.3867C27.4391 20.4102 25.8242 19.3717 23.7188 19.2715C21.6419 21.0905 19.2357 22 16.5 22C13.7643 22 11.3581 21.0905 9.28125 19.2715C7.17578 19.3717 5.56087 20.4102 4.43652 22.3867C3.31217 24.3633 2.75 27.0632 2.75 30.4863C2.75 31.9473 3.19759 33.1898 4.09277 34.2139C4.98796 35.238 6.06576 35.75 7.32617 35.75H25.6738Z" fill="black"/>
</g>
<defs>
<clipPath id="clip0">
<rect width="33" height="38.5" fill="white"/>
</clipPath>
</defs>
</svg>
