<svg width="50" height="50" viewBox="0 0 50 50" fill="none" xmlns="http://www.w3.org/2000/svg">
<path d="M25 45.8333C27.2916 45.8333 29.1666 43.9583 29.1666 41.6667H20.8333C20.8333 43.9583 22.7083 45.8333 25 45.8333ZM37.5 33.3333V22.9167C37.5 16.5208 34.1041 11.1667 28.125 9.74999V8.33333C28.125 6.60416 26.7291 5.20833 25 5.20833C23.2708 5.20833 21.875 6.60416 21.875 8.33333V9.74999C15.9166 11.1667 12.5 16.5 12.5 22.9167V33.3333L8.33331 37.5V39.5833H41.6666V37.5L37.5 33.3333ZM33.3333 35.4167H16.6666V22.9167C16.6666 17.75 19.8125 13.5417 25 13.5417C30.1875 13.5417 33.3333 17.75 33.3333 22.9167V35.4167Z" fill="white"/>
</svg>
