<svg width="55" height="55" viewBox="0 0 55 55" fill="none" xmlns="http://www.w3.org/2000/svg">
<path d="M27.5 0C12.3122 0 0 12.3122 0 27.5C0 42.6878 12.3122 55 27.5 55C42.6878 55 55 42.6878 55 27.5C55 12.3122 42.6878 0 27.5 0ZM27.4443 15.2911C29.9808 15.3245 32.0818 17.3894 32.7799 20.0207C33.046 21.0943 33.076 22.1835 32.8077 23.3206C32.4032 24.9216 31.5932 26.4853 30.0842 27.446L32.2835 28.4908L37.5095 31.0211C38.0228 31.2411 38.2792 31.681 38.2792 32.3411V37.3998C38.2792 38.4431 38.362 39.3428 37.0689 39.7106H17.8196C16.576 39.6927 16.5245 38.433 16.5536 37.3998V32.3411C16.5536 31.6811 16.829 31.222 17.379 30.9653L22.7686 28.4908L24.86 27.5C23.9067 26.8767 23.155 26.0158 22.605 24.9158C21.9445 23.4636 21.6827 21.5785 22.1644 19.8553C22.7734 17.5195 24.6808 15.421 27.4443 15.2911ZM18.4796 17.6002C19.2863 17.6002 20.019 17.8393 20.6789 18.3159C20.4959 18.8292 20.3409 19.3705 20.2122 19.9389C20.0839 20.5071 20.0189 21.1021 20.0189 21.7255C20.0189 22.6422 20.1471 23.5221 20.4038 24.3655C20.6604 25.2088 21.0276 25.9796 21.5044 26.6763C21.2843 26.9696 20.9916 27.226 20.6249 27.446L16.5535 29.3162C16.0035 29.6096 15.5636 30.021 15.2336 30.5527C14.9036 31.0844 14.739 31.6811 14.739 32.3411V37.3998H10.7251C10.1428 37.3907 9.74953 36.8039 9.73427 36.1913V31.406C9.73427 30.856 9.9352 30.4887 10.3385 30.3054L16.4439 27.5C14.8665 26.5303 14.1055 24.7777 14.0252 22.8261C14.053 20.4216 15.629 17.8 18.4796 17.6002ZM36.5187 17.6002C39.0528 17.6403 40.8833 20.1527 40.9749 22.8261C40.961 24.5951 40.2705 26.3032 38.6641 27.4461L44.6597 30.3054C45.063 30.5254 45.2639 30.8926 45.2639 31.406V36.1913C45.2579 36.7593 44.9514 37.3419 44.2749 37.3998H40.1495V32.3411C40.1495 31.6811 39.985 31.0844 39.655 30.5526C39.325 30.0209 38.885 29.6096 38.335 29.3162C36.6252 28.5215 34.6616 27.9511 33.3842 26.6206C34.3375 25.1539 34.8139 23.5222 34.8139 21.7255C34.8139 20.5888 34.6129 19.4699 34.2096 18.3699C34.872 17.9326 35.656 17.6125 36.5187 17.6002Z" fill="white"/>
</svg>
