<svg width="68" height="68" viewBox="0 0 68 68" fill="none" xmlns="http://www.w3.org/2000/svg">
<path d="M34 58.48C25.5 58.48 17.986 54.128 13.6 47.6C13.702 40.8 27.2 37.06 34 37.06C40.8 37.06 54.298 40.8 54.4 47.6C52.1522 50.947 49.1159 53.6899 45.5585 55.5872C42.0011 57.4845 38.0317 58.4779 34 58.48ZM34 10.2C36.7052 10.2 39.2996 11.2746 41.2125 13.1875C43.1254 15.1004 44.2 17.6948 44.2 20.4C44.2 23.1052 43.1254 25.6996 41.2125 27.6125C39.2996 29.5254 36.7052 30.6 34 30.6C31.2948 30.6 28.7004 29.5254 26.7875 27.6125C24.8746 25.6996 23.8 23.1052 23.8 20.4C23.8 17.6948 24.8746 15.1004 26.7875 13.1875C28.7004 11.2746 31.2948 10.2 34 10.2ZM34 0C29.5351 0 25.1138 0.879436 20.9888 2.5881C16.8637 4.29676 13.1156 6.80118 9.95837 9.95837C3.58213 16.3346 0 24.9826 0 34C0 43.0174 3.58213 51.6654 9.95837 58.0416C13.1156 61.1988 16.8637 63.7032 20.9888 65.4119C25.1138 67.1206 29.5351 68 34 68C43.0174 68 51.6654 64.4179 58.0416 58.0416C64.4179 51.6654 68 43.0174 68 34C68 15.198 52.7 0 34 0Z" fill="white"/>
</svg>
