<svg width="50" height="50" viewBox="0 0 50 50" fill="none" xmlns="http://www.w3.org/2000/svg">
<path d="M31.25 25C35.8524 25 39.5834 21.269 39.5834 16.6666C39.5834 12.0643 35.8524 8.33331 31.25 8.33331C26.6476 8.33331 22.9167 12.0643 22.9167 16.6666C22.9167 21.269 26.6476 25 31.25 25Z" fill="white"/>
<path d="M31.25 41.6666C31.25 41.6666 47.9166 41.6666 47.9166 37.5C47.9166 32.5 39.7916 27.0833 31.25 27.0833C22.7083 27.0833 14.5833 32.5 14.5833 37.5C14.5833 41.6666 31.25 41.6666 31.25 41.6666ZM12.5 20.8333V14.5833H8.33331V20.8333H2.08331V25H8.33331V31.25H12.5V25H18.75V20.8333H12.5Z" fill="white"/>
</svg>
