<svg width="40" height="40" viewBox="0 0 40 40" fill="none" xmlns="http://www.w3.org/2000/svg">
<path d="M26.6667 13.3333C27.9928 13.3333 29.2646 13.8601 30.2023 14.7978C31.14 15.7355 31.6667 17.0073 31.6667 18.3333V31.6667C31.6667 32.9928 31.14 34.2645 30.2023 35.2022C29.2646 36.1399 27.9928 36.6667 26.6667 36.6667H11.6667C10.3407 36.6667 9.0689 36.1399 8.13121 35.2022C7.19353 34.2645 6.66675 32.9928 6.66675 31.6667V18.3333C6.66675 17.0073 7.19353 15.7355 8.13121 14.7978C9.0689 13.8601 10.3407 13.3333 11.6667 13.3333V10.8333C11.6667 8.84422 12.4569 6.93657 13.8634 5.53004C15.27 4.12352 17.1776 3.33334 19.1667 3.33334C21.1559 3.33334 23.0635 4.12352 24.47 5.53004C25.8766 6.93657 26.6667 8.84422 26.6667 10.8333V13.3333ZM11.6667 15C10.7827 15 9.93485 15.3512 9.30973 15.9763C8.6846 16.6014 8.33341 17.4493 8.33341 18.3333V31.6667C8.33341 32.5507 8.6846 33.3986 9.30973 34.0237C9.93485 34.6488 10.7827 35 11.6667 35H26.6667C27.5508 35 28.3986 34.6488 29.0238 34.0237C29.6489 33.3986 30.0001 32.5507 30.0001 31.6667V18.3333C30.0001 17.4493 29.6489 16.6014 29.0238 15.9763C28.3986 15.3512 27.5508 15 26.6667 15H11.6667ZM25.0001 13.3333V10.8333C25.0001 9.28625 24.3855 7.80252 23.2915 6.70855C22.1976 5.61459 20.7138 5.00001 19.1667 5.00001C17.6197 5.00001 16.1359 5.61459 15.042 6.70855C13.948 7.80252 13.3334 9.28625 13.3334 10.8333V13.3333H25.0001ZM19.1667 23.3333C18.5037 23.3333 17.8678 23.5967 17.399 24.0656C16.9301 24.5344 16.6667 25.1703 16.6667 25.8333C16.6667 26.4964 16.9301 27.1323 17.399 27.6011C17.8678 28.07 18.5037 28.3333 19.1667 28.3333C19.8298 28.3333 20.4657 28.07 20.9345 27.6011C21.4034 27.1323 21.6667 26.4964 21.6667 25.8333C21.6667 25.1703 21.4034 24.5344 20.9345 24.0656C20.4657 23.5967 19.8298 23.3333 19.1667 23.3333ZM19.1667 21.6667C20.2718 21.6667 21.3316 22.1057 22.113 22.8871C22.8944 23.6685 23.3334 24.7283 23.3334 25.8333C23.3334 26.9384 22.8944 27.9982 22.113 28.7796C21.3316 29.561 20.2718 30 19.1667 30C18.0617 30 17.0019 29.561 16.2205 28.7796C15.4391 27.9982 15.0001 26.9384 15.0001 25.8333C15.0001 24.7283 15.4391 23.6685 16.2205 22.8871C17.0019 22.1057 18.0617 21.6667 19.1667 21.6667Z" fill="black" fill-opacity="0.886"/>
</svg>
