<svg width="133" height="43" viewBox="0 0 133 43" fill="none" xmlns="http://www.w3.org/2000/svg">
<path d="M13.4163 24.2943L14.8667 12.691C7.02943 13.7421 4.0853 16.3322 1.81302 24.2943H13.4163Z" fill="#A259FF"/>
<path d="M1.81301 24.2944H13.4163C12.4896 36.1991 10.2777 40.9806 0 42.4245L1.81301 24.2944Z" fill="#F24E1E"/>
<path d="M14.8667 12.6911H32.6342C32.0371 19.4254 27.5577 24.2944 21.7561 24.2944H13.4163L14.8667 12.6911Z" fill="#1ABCFE"/>
<path d="M23.9317 0H4.71382C4.6141 7.02945 6.6739 9.23348 12.6911 11.2407H32.9968C33.0888 4.45843 31.2386 1.90812 23.9317 0Z" fill="#0ACF83"/>
<path d="M48.57 15.65C46.47 15.65 44.74 17.38 43.38 20.84V25.61C44.56 26.77 45.98 27.35 47.64 27.35C48.92 27.35 50.04 26.77 51 25.61C51.98 24.43 52.47 23.04 52.47 21.44C52.47 19.84 52.12 18.48 51.42 17.36C50.74 16.22 49.79 15.65 48.57 15.65ZM43.38 27.83C43.34 29.35 43.32 30.61 43.32 31.61C43.32 32.63 43.31 33.38 43.29 33.86C43.25 34.68 43.16 35.2 43.02 35.42C42.84 35.74 42.53 35.9 42.09 35.9C41.67 35.9 41.33 35.73 41.07 35.39C40.81 35.05 40.68 34.49 40.68 33.71C40.68 32.93 40.71 32.19 40.77 31.49L41.13 27.92C41.35 25.62 41.48 24.27 41.52 23.87V23.3L41.55 22.16V21.68C41.55 20.84 41.46 19.61 41.28 17.99C41.1 16.37 41.01 15.38 41.01 15.02C41.01 14.66 41.12 14.35 41.34 14.09C41.56 13.83 41.84 13.7 42.18 13.7C42.52 13.7 42.8 13.83 43.02 14.09C43.24 14.35 43.35 14.63 43.35 14.93C43.35 15.23 43.34 15.69 43.32 16.31C43.32 16.93 43.32 17.35 43.32 17.57C44.02 16.27 44.78 15.3 45.6 14.66C46.44 14.02 47.5 13.7 48.78 13.7C50.06 13.7 51.16 14.12 52.08 14.96C53.82 16.5 54.69 18.57 54.69 21.17C54.69 23.35 54.03 25.25 52.71 26.87C51.39 28.49 49.7 29.3 47.64 29.3C46.14 29.3 44.72 28.81 43.38 27.83ZM60.6094 7.7L60.4594 17.75L60.6094 27.8C60.6094 28.8 60.2294 29.3 59.4694 29.3C58.7094 29.3 58.3294 28.8 58.3294 27.8L58.4794 17.75L58.3294 7.7C58.3294 6.7 58.7094 6.2 59.4694 6.2C60.2294 6.2 60.6094 6.7 60.6094 7.7ZM76.8284 21.74C76.8284 23.2 76.9284 24.42 77.1284 25.4C77.3484 26.36 77.6184 26.9 77.9384 27.02C78.0584 27.08 78.1984 27.12 78.3584 27.14C78.5384 27.16 78.6584 27.19 78.7184 27.23C78.7984 27.27 78.8384 27.35 78.8384 27.47C78.8384 28.03 78.6884 28.48 78.3884 28.82C78.0884 29.14 77.6484 29.3 77.0684 29.3C76.5084 29.3 76.0684 28.94 75.7484 28.22C75.4284 27.48 75.2684 26.52 75.2684 25.34C74.7284 26.5 73.9784 27.45 73.0184 28.19C72.0584 28.93 70.9684 29.3 69.7484 29.3C68.5484 29.3 67.5184 28.9 66.6584 28.1C65.0584 26.62 64.2584 24.53 64.2584 21.83C64.2584 19.65 64.8884 17.75 66.1484 16.13C67.4084 14.51 69.0284 13.7 71.0084 13.7C72.5084 13.7 73.8084 14.21 74.9084 15.23C74.9084 14.21 75.2884 13.7 76.0484 13.7C76.9684 13.7 77.4284 14.39 77.4284 15.77C77.4284 17.13 77.2284 19.12 76.8284 21.74ZM75.0884 22.01L74.9384 17.39C73.7584 16.23 72.5084 15.65 71.1884 15.65C69.8684 15.65 68.7384 16.24 67.7984 17.42C66.8584 18.6 66.3884 20.03 66.3884 21.71C66.3884 23.37 66.6984 24.73 67.3184 25.79C67.9384 26.83 68.7984 27.35 69.8984 27.35C70.9984 27.35 72.0084 26.86 72.9284 25.88C73.8684 24.9 74.5884 23.61 75.0884 22.01ZM94.837 19.55L94.687 24.26V25.55C94.727 26.37 94.927 26.86 95.287 27.02C95.427 27.06 95.587 27.1 95.767 27.14C95.947 27.16 96.067 27.19 96.127 27.23C96.207 27.27 96.247 27.35 96.247 27.47C96.247 27.99 96.077 28.43 95.737 28.79C95.417 29.13 95.037 29.3 94.597 29.3C93.857 29.3 93.337 29.01 93.037 28.43C92.737 27.85 92.587 26.96 92.587 25.76L92.707 20.24C92.707 18.86 92.407 17.76 91.807 16.94C91.227 16.1 90.427 15.68 89.407 15.68C88.387 15.68 87.397 16.25 86.437 17.39C85.497 18.51 84.827 19.8 84.427 21.26L84.517 27.77C84.517 28.79 84.137 29.3 83.377 29.3C82.457 29.3 81.997 28.62 81.997 27.26C81.997 25.88 82.197 23.88 82.597 21.26C82.597 20.42 82.507 19.24 82.327 17.72C82.167 16.2 82.087 15.28 82.087 14.96C82.087 14.64 82.197 14.35 82.417 14.09C82.637 13.83 82.917 13.7 83.257 13.7C83.597 13.7 83.877 13.83 84.097 14.09C84.317 14.35 84.427 14.63 84.427 14.93C84.427 15.23 84.417 15.68 84.397 16.28C84.397 16.88 84.397 17.29 84.397 17.51C85.857 14.97 87.657 13.7 89.797 13.7C91.397 13.7 92.637 14.28 93.517 15.44C94.397 16.58 94.837 17.95 94.837 19.55ZM110.05 22.16V17.39C108.87 16.23 107.45 15.65 105.79 15.65C104.53 15.65 103.41 16.24 102.43 17.42C101.45 18.58 100.96 19.96 100.96 21.56C100.96 23.14 101.31 24.51 102.01 25.67C102.71 26.79 103.66 27.35 104.86 27.35C106.96 27.35 108.69 25.62 110.05 22.16ZM111.31 6.2C112.29 6.2 112.78 7.01 112.78 8.63C112.78 9.25 112.74 9.97 112.66 10.79L112.3 14.72C112.08 17.16 111.95 18.63 111.91 19.13C111.91 21.75 112 23.71 112.18 25.01C112.38 26.29 112.73 26.98 113.23 27.08C113.75 27.08 114.01 27.23 114.01 27.53C114.01 27.97 113.86 28.38 113.56 28.76C113.28 29.12 112.87 29.3 112.33 29.3C111.21 29.3 110.52 27.96 110.26 25.28C108.78 27.96 106.93 29.3 104.71 29.3C103.39 29.3 102.27 28.88 101.35 28.04C99.6101 26.5 98.7401 24.43 98.7401 21.83C98.7401 19.65 99.4001 17.75 100.72 16.13C102.04 14.51 103.73 13.7 105.79 13.7C107.29 13.7 108.71 14.19 110.05 15.17C110.09 11.45 110.11 9.18 110.11 8.36C110.11 7.54 110.2 6.98 110.38 6.68C110.58 6.36 110.89 6.2 111.31 6.2ZM127.537 21.74L127.447 15.23C127.447 14.21 127.827 13.7 128.587 13.7C129.507 13.7 129.967 14.45 129.967 15.95C129.967 17.13 129.757 19.06 129.337 21.74C129.577 24.18 129.697 26 129.697 27.2C129.697 29.82 129.047 31.92 127.747 33.5C126.467 35.1 124.677 35.9 122.377 35.9C121.177 35.9 120.017 35.64 118.897 35.12C117.777 34.62 117.217 34.11 117.217 33.59C117.217 33.09 117.447 32.84 117.907 32.84C118.107 32.84 118.657 33.02 119.557 33.38C120.457 33.76 121.397 33.95 122.377 33.95C124.037 33.95 125.357 33.35 126.337 32.15C127.337 30.97 127.837 29.42 127.837 27.5C127.837 26.8 127.807 26.12 127.747 25.46C126.267 28.02 124.407 29.3 122.167 29.3C120.567 29.3 119.327 28.71 118.447 27.53C117.567 26.31 117.127 24.85 117.127 23.15L117.307 18.62C117.307 18 117.227 17.26 117.067 16.4C116.907 15.52 116.827 14.97 116.827 14.75C116.827 14.53 116.947 14.3 117.187 14.06C117.447 13.82 117.757 13.7 118.117 13.7C119.037 13.7 119.497 14.52 119.497 16.16L119.257 22.76C119.257 24.14 119.547 25.25 120.127 26.09C120.727 26.93 121.537 27.35 122.557 27.35C123.577 27.35 124.567 26.78 125.527 25.64C126.467 24.48 127.137 23.18 127.537 21.74Z" fill="black"/>
</svg>
